<?xml version="1.0" encoding="UTF-8" standalone="no"?>
<!-- Created with Inkscape (http://www.inkscape.org/) -->

<svg
   width="104.34986mm"
   height="27.198011mm"
   viewBox="0 0 104.34986 27.198011"
   version="1.1"
   id="svg1"
   inkscape:version="1.3.2 (091e20ef0f, 2023-11-25, custom)"
   sodipodi:docname="conv.svg"
   xmlns:inkscape="http://www.inkscape.org/namespaces/inkscape"
   xmlns:sodipodi="http://sodipodi.sourceforge.net/DTD/sodipodi-0.dtd"
   xmlns="http://www.w3.org/2000/svg"
   xmlns:svg="http://www.w3.org/2000/svg">
  <sodipodi:namedview
     id="namedview1"
     pagecolor="#ffffff"
     bordercolor="#000000"
     borderopacity="0.25"
     inkscape:showpageshadow="2"
     inkscape:pageopacity="0.0"
     inkscape:pagecheckerboard="0"
     inkscape:deskcolor="#d1d1d1"
     inkscape:document-units="mm"
     inkscape:zoom="1.032007"
     inkscape:cx="247.09135"
     inkscape:cy="-174.41743"
     inkscape:window-width="1920"
     inkscape:window-height="1011"
     inkscape:window-x="0"
     inkscape:window-y="32"
     inkscape:window-maximized="1"
     inkscape:current-layer="layer1" />
  <defs
     id="defs1">
    <inkscape:path-effect
       effect="lattice2"
       gridpoint0="77.026632,112.06244"
       gridpoint1="118.43432,112.06244"
       gridpoint2="77.026632,138.72945"
       gridpoint3="118.43432,138.72945"
       gridpoint4="87.378554,112.06244"
       gridpoint5="108.0824,112.06244"
       gridpoint6="87.378554,138.72945"
       gridpoint7="108.0824,138.72945"
       gridpoint8x9="97.614515,126.06163"
       gridpoint10x11="97.730476,138.72945"
       gridpoint12="77.026632,118.72919"
       gridpoint13="118.43432,118.72919"
       gridpoint14="77.026632,132.0627"
       gridpoint15="118.43432,132.0627"
       gridpoint16="87.378554,118.72919"
       gridpoint17="108.0824,118.72919"
       gridpoint18="87.378554,132.0627"
       gridpoint19="108.0824,132.0627"
       gridpoint20x21="97.730476,118.72919"
       gridpoint22x23="97.730476,132.0627"
       gridpoint24x26="77.026632,125.39594"
       gridpoint25x27="118.43432,125.39594"
       gridpoint28x30="87.378554,125.39594"
       gridpoint29x31="108.0824,125.39594"
       gridpoint32x33x34x35="97.730476,125.39594"
       id="path-effect1"
       is_visible="true"
       lpeversion="1"
       horizontal_mirror="false"
       vertical_mirror="false"
       perimetral="false"
       live_update="true" />
  </defs>
  <g
     inkscape:label="Layer 1"
     inkscape:groupmode="layer"
     id="layer1"
     transform="translate(-14.288568,-111.79694)">
    <ellipse
       style="fill:none;stroke:#000000;stroke-width:0.531"
       id="path1"
       cx="35.257912"
       cy="125.39594"
       rx="20.703844"
       ry="13.333506" />
    <path
       style="fill:none;stroke:#000000;stroke-width:0.453527;stroke-dasharray:none"
       id="path1-5"
       inkscape:path-effect="#path-effect1"
       sodipodi:type="arc"
       sodipodi:cx="97.730476"
       sodipodi:cy="125.39594"
       sodipodi:rx="20.703844"
       sodipodi:ry="13.333506"
       d="m 118.43432,125.39594 c 0,1.76814 -0.54528,3.49436 -1.57675,5.19518 -1.02074,1.68311 -2.55992,3.39499 -4.49151,4.74557 -1.98942,1.39102 -4.18198,2.26311 -6.71578,2.76599 -2.42291,0.48088 -5.23813,0.62677 -7.919804,0.62677 -2.681397,0 -5.500581,-0.14589 -7.926234,-0.62677 -2.537085,-0.50296 -4.730133,-1.37489 -6.71784,-2.76599 -1.929536,-1.35039 -3.465551,-3.06265 -4.484551,-4.74557 -1.029849,-1.70082 -1.575219,-3.42704 -1.575219,-5.19518 0,-1.76813 0.545913,-3.57128 1.574267,-4.89494 1.054617,-1.35748 2.512199,-2.05108 4.465004,-1.546 2.067514,0.53474 4.051527,2.13192 6.660286,3.93337 2.567076,1.77266 5.043809,3.17326 7.888326,3.17326 2.844955,0 5.349835,-1.4006 7.957715,-3.17326 2.64969,-1.80109 4.67615,-3.39899 6.77333,-3.93337 1.9825,-0.50516 3.45177,0.18861 4.51105,1.546 1.03298,1.32366 1.57771,3.12681 1.57771,4.89494 z"
       transform="matrix(1.0997546,0,0,1.2464872,-11.859647,-34.240472)" />
    <g
       inkscape:label=""
       transform="translate(23.010476,128.65276)"
       id="g1">
      <g
         fill="#000000"
         fill-opacity="1"
         id="g15"
         transform="matrix(0.352778,0,0,0.352778,-0.934597,-0.626886)">
        <g
           id="use8"
           transform="translate(1.993,9.4020004)">
          <path
             d="M 0.65625,-7.421875 V -7.1875 H 0.9375 c 0.421875,0 0.875,0.0625 0.875,0.71875 v 5.484375 c 0,0.640625 -0.453125,0.6875 -1.15625,0.6875 v 0.28125 H 5.125 C 6.171875,-0.09375 7.546875,-0.75 7.546875,-2.09375 c 0,-1.265625 -1.84375,-1.953125 -2.5,-1.984375 C 5.203125,-4.15625 5.390625,-4.1875 5.5625,-4.234375 6.25,-4.453125 7.1875,-4.875 7.1875,-5.71875 7.1875,-6.359375 6.578125,-6.875 6.03125,-7.125 5.40625,-7.40625 4.75,-7.421875 4.078125,-7.421875 Z m 2.0625,3.46875 H 4.5 c 1.09375,0 1.953125,0.734375 1.953125,1.828125 0,1.140625 -1.0625,1.828125 -2.078125,1.828125 H 3.234375 c -0.375,0 -0.515625,-0.15625 -0.515625,-0.75 z m 0,-0.28125 V -6.46875 c 0,-0.359375 0.046875,-0.71875 0.53125,-0.71875 h 0.84375 c 0.46875,0 0.921875,0.03125 1.328125,0.28125 0.390625,0.265625 0.6875,0.71875 0.6875,1.203125 0,1.078125 -1.359375,1.46875 -2.0625,1.46875 z m 0,0"
             id="path15" />
        </g>
        <g
           id="use9"
           transform="translate(10.080795,9.4020004)">
          <path
             d="M 0.640625,-7.421875 V -7.1875 H 0.90625 c 0.4375,0 0.890625,0.0625 0.890625,0.71875 v 5.484375 c 0,0.640625 -0.453125,0.6875 -1.15625,0.6875 v 0.28125 h 4.28125 C 5.984375,-0.09375 7.40625,-0.6875 7.546875,-2 v -0.15625 c 0,-0.75 -0.578125,-1.359375 -1.203125,-1.703125 -0.671875,-0.359375 -1.40625,-0.375 -2.140625,-0.375 h -1.5 V -6.46875 C 2.703125,-7.0625 3,-7.1875 3.859375,-7.1875 v -0.234375 z m 2.0625,3.46875 H 4.3125 c 1.015625,0 2.109375,0.671875 2.109375,1.78125 0,1.109375 -1,1.84375 -2.046875,1.84375 H 3.078125 c -0.375,0 -0.375,-0.375 -0.375,-0.71875 z m 5.09375,-3.46875 V -7.1875 h 0.25 c 0.421875,0 0.90625,0.0625 0.90625,0.65625 v 5.578125 c 0,0.640625 -0.515625,0.65625 -1.15625,0.65625 v 0.28125 h 3.234375 v -0.28125 H 10.6875 c -0.453125,0 -0.84375,-0.078125 -0.84375,-1.03125 0,-0.234375 0.015625,-0.484375 0.015625,-0.71875 V -6.34375 c 0,-0.625 0.15625,-0.84375 1.171875,-0.84375 v -0.234375 z m 0,0"
             id="path16" />
        </g>
        <g
           id="use10"
           transform="translate(21.764887,9.4020004)">
          <path
             d="M 0.640625,-7.421875 V -7.1875 H 0.90625 c 0.4375,0 0.890625,0.0625 0.890625,0.71875 v 5.484375 c 0,0.640625 -0.453125,0.6875 -1.15625,0.6875 v 0.28125 h 3.21875 v -0.28125 H 3.65625 c -0.484375,0 -0.953125,-0.03125 -0.953125,-0.671875 v -5.546875 c 0,-0.421875 0.109375,-0.6875 0.578125,-0.6875 0.125,0 0.234375,0.015625 0.3125,0.015625 0.5,0 1,-0.015625 1.484375,-0.015625 0.296875,0 0.59375,0.046875 0.875,0.046875 0.25,0.0625 0.28125,0.265625 0.3125,0.5 v 5.625 c 0,0.53125 -0.15625,0.734375 -1.15625,0.734375 v 0.28125 h 3.21875 v -0.28125 H 8.125 c -0.484375,0 -0.9375,-0.03125 -0.9375,-0.6875 V -6.46875 c 0,-0.59375 0.34375,-0.71875 1.140625,-0.71875 v -0.234375 z m 0,0"
             id="path17" />
        </g>
        <g
           id="use11"
           transform="translate(30.751326,9.4020004)">
          <path
             d="M 0.28125,-7.421875 V -7.1875 h 0.171875 c 0.9375,0 1.09375,0.84375 1.359375,1.546875 0.6875,1.71875 1.40625,3.4375 2.09375,5.15625 0.03125,0.125 0.15625,0.296875 0.15625,0.453125 0,0.296875 -0.28125,0.765625 -0.40625,1.078125 C 3.328125,1.921875 2.84375,3.1875 1.75,3.1875 1.40625,3.1875 1.125,3.046875 0.859375,2.828125 1.1875,2.796875 1.453125,2.625 1.453125,2.265625 c 0,-0.3125 -0.25,-0.578125 -0.578125,-0.578125 -0.328125,0 -0.5625,0.234375 -0.5625,0.578125 0,0.765625 0.765625,1.203125 1.4375,1.203125 1.234375,0 1.796875,-1.265625 2.1875,-2.265625 0.84375,-2.1875 1.78125,-4.359375 2.640625,-6.5 C 6.875,-6.046875 7.21875,-7.1875 8.25,-7.1875 V -7.421875 H 5.90625 V -7.1875 c 0.40625,0 0.671875,0.375 0.671875,0.734375 0,0.25 -0.09375,0.515625 -0.1875,0.75 C 5.96875,-4.6875 5.5625,-3.671875 5.171875,-2.65625 l -0.375,0.875 C 4.71875,-1.578125 4.625,-1.390625 4.578125,-1.1875 H 4.5625 C 4.4375,-1.671875 4.1875,-2.140625 4.015625,-2.59375 3.609375,-3.578125 3.203125,-4.578125 2.8125,-5.5625 L 2.546875,-6.203125 c -0.0625,-0.15625 -0.140625,-0.3125 -0.140625,-0.484375 0,-0.25 0.1875,-0.5 0.828125,-0.5 v -0.234375 z m 0,0"
             id="path18" />
        </g>
        <g
           id="use12"
           transform="translate(39.288445,9.4020004)">
          <path
             d="M 0.640625,-7.421875 V -7.1875 H 0.90625 c 0.4375,0 0.890625,0.0625 0.890625,0.71875 v 5.484375 c 0,0.640625 -0.453125,0.6875 -1.15625,0.6875 v 0.28125 h 3.1875 v -0.28125 H 3.5625 C 3.140625,-0.296875 2.671875,-0.34375 2.671875,-1 v -1.9375 c 0,-0.234375 0.25,-0.375 0.421875,-0.5 0.3125,-0.265625 0.609375,-0.515625 0.921875,-0.765625 0.171875,0.296875 0.390625,0.546875 0.59375,0.828125 0.484375,0.671875 1,1.34375 1.484375,2.03125 0.125,0.15625 0.296875,0.4375 0.296875,0.671875 0,0.171875 -0.140625,0.375 -0.515625,0.375 v 0.28125 h 2.828125 v -0.28125 c -0.828125,0 -1.171875,-0.53125 -1.578125,-1.0625 -0.78125,-1.0625 -1.578125,-2.171875 -2.390625,-3.25 -0.015625,-0.046875 -0.03125,-0.0625 -0.03125,-0.09375 v -0.03125 c 0,-0.09375 0.140625,-0.171875 0.203125,-0.21875 l 0.609375,-0.5 C 6.3125,-6.140625 7.328125,-7.125 8.328125,-7.1875 v -0.234375 h -2.4375 V -7.1875 C 6.0625,-7.125 6.1875,-7.03125 6.1875,-6.859375 c 0,0.3125 -0.375,0.6875 -0.484375,0.8125 C 4.75,-5.140625 3.65625,-4.375 2.671875,-3.5 v -2.8125 c 0,-0.578125 0.03125,-0.875 1.15625,-0.875 v -0.234375 z m 0,0"
             id="path19" />
        </g>
        <g
           id="use13"
           transform="translate(48.274879,9.4020004)">
          <path
             d="M 2.09375,-7.421875 V -7.1875 h 0.3125 c 0.453125,0 0.921875,0.0625 0.921875,0.65625 0,1.40625 -0.109375,2.84375 -0.40625,4.21875 C 2.765625,-1.53125 2.4375,-0.125 1.5625,-0.125 c -0.25,0 -0.546875,-0.09375 -0.734375,-0.28125 0.328125,0 0.625,-0.21875 0.625,-0.578125 0,-0.265625 -0.203125,-0.5625 -0.5625,-0.5625 -0.34375,0 -0.578125,0.25 -0.578125,0.59375 0,0.75 0.65625,1.140625 1.328125,1.140625 0.921875,0 1.34375,-1.3125 1.546875,-2.15625 0.359375,-1.453125 0.359375,-2.953125 0.453125,-4.390625 V -6.53125 c 0,-0.296875 0.0625,-0.609375 0.421875,-0.65625 h 1.671875 c 0.4375,0 0.53125,0.25 0.53125,0.609375 v 5.609375 c 0,0.65625 -0.515625,0.671875 -1.15625,0.671875 v 0.28125 h 3.21875 v -0.28125 H 8.125 c -0.484375,0 -0.9375,-0.03125 -0.9375,-0.6875 V -6.46875 c 0,-0.59375 0.34375,-0.71875 1.140625,-0.71875 v -0.234375 z m 0,0"
             id="path20" />
        </g>
        <g
           id="use14"
           transform="translate(57.261318,9.4020004)">
          <path
             d="m 3.8125,-7.625 c -2.078125,0.25 -3.25,2.078125 -3.25,3.921875 0,1.8125 1.21875,3.828125 3.53125,3.828125 C 6.140625,0.125 7.5,-1.828125 7.5,-3.71875 7.5,-5.5625 6.25,-7.625 4.015625,-7.625 Z m -2.125,4.25 c 0,-0.140625 -0.015625,-0.28125 -0.015625,-0.40625 0,-1.25 0.1875,-2.8125 1.5625,-3.40625 C 3.5,-7.28125 3.765625,-7.359375 4.03125,-7.359375 c 1.40625,0 2.1875,1.3125 2.328125,2.609375 0.015625,0.296875 0.03125,0.59375 0.03125,0.90625 0,0.953125 -0.078125,2.03125 -0.703125,2.8125 -0.421875,0.515625 -1.03125,0.84375 -1.671875,0.84375 -1.375,0 -2.125,-1.328125 -2.265625,-2.515625 C 1.71875,-2.921875 1.71875,-3.15625 1.6875,-3.375 Z m 0,0"
             id="path21" />
        </g>
        <g
           id="use15"
           transform="translate(65.349113,9.4020004)">
          <path
             d="m 1.6875,-4.0625 h 4.828125 c 0.140625,0 0.21875,-0.03125 0.21875,-0.203125 0,-1.6875 -0.890625,-3.359375 -2.84375,-3.359375 -2.03125,0 -3.328125,1.9375 -3.328125,3.8125 0,1.8125 1.234375,3.828125 3.296875,3.9375 H 4 c 1.1875,0 2.34375,-0.78125 2.6875,-2 0.015625,-0.046875 0.03125,-0.109375 0.03125,-0.171875 0,-0.09375 -0.0625,-0.140625 -0.125,-0.140625 -0.21875,0 -0.296875,0.46875 -0.390625,0.671875 C 5.8125,-0.78125 5.046875,-0.1875 4.1875,-0.1875 3.6875,-0.1875 3.140625,-0.375 2.75,-0.71875 1.78125,-1.546875 1.6875,-2.875 1.6875,-4.0625 Z m 0.015625,-0.28125 c 0.03125,-1.34375 0.703125,-2.984375 2.15625,-2.984375 1.265625,0 1.765625,1.3125 1.875,2.359375 0.03125,0.203125 0.015625,0.421875 0.046875,0.625 z m 0,0"
             id="path22" />
        </g>
      </g>
    </g>
    <g
       inkscape:label=""
       transform="translate(79.566349,128.68859)"
       id="g9">
      <g
         fill="#000000"
         fill-opacity="1"
         id="g10"
         transform="matrix(0.352778,0,0,0.352778,-0.929084,-0.626886)">
        <g
           id="g2"
           transform="translate(1.993,9.4020004)">
          <path
             d="M 0.640625,-7.421875 V -7.1875 H 0.90625 c 0.4375,0 0.890625,0.0625 0.890625,0.71875 v 5.484375 c 0,0.640625 -0.453125,0.6875 -1.15625,0.6875 v 0.28125 h 3.21875 v -0.28125 H 3.53125 c -0.4375,0 -0.828125,-0.0625 -0.828125,-0.84375 v -2.8125 h 3.5625 v 2.8125 c 0,0.578125 -0.03125,0.84375 -1.15625,0.84375 v 0.28125 h 3.21875 v -0.28125 H 8.125 c -0.484375,0 -0.9375,-0.03125 -0.9375,-0.6875 V -6.46875 c 0,-0.59375 0.34375,-0.71875 1.140625,-0.71875 V -7.421875 H 5.109375 V -7.1875 h 0.28125 c 0.453125,0 0.875,0.0625 0.875,0.71875 v 2.234375 h -3.5625 V -6.46875 C 2.703125,-7.0625 3,-7.1875 3.859375,-7.1875 v -0.234375 z m 0,0"
             id="path2" />
        </g>
        <g
           id="g3"
           transform="translate(10.979439,9.4020004)">
          <path
             d="m 1.6875,-4.0625 h 4.828125 c 0.140625,0 0.21875,-0.03125 0.21875,-0.203125 0,-1.6875 -0.890625,-3.359375 -2.84375,-3.359375 -2.03125,0 -3.328125,1.9375 -3.328125,3.8125 0,1.8125 1.234375,3.828125 3.296875,3.9375 H 4 c 1.1875,0 2.34375,-0.78125 2.6875,-2 0.015625,-0.046875 0.03125,-0.109375 0.03125,-0.171875 0,-0.09375 -0.0625,-0.140625 -0.125,-0.140625 -0.21875,0 -0.296875,0.46875 -0.390625,0.671875 C 5.8125,-0.78125 5.046875,-0.1875 4.1875,-0.1875 3.6875,-0.1875 3.140625,-0.375 2.75,-0.71875 1.78125,-1.546875 1.6875,-2.875 1.6875,-4.0625 Z m 0.015625,-0.28125 c 0.03125,-1.34375 0.703125,-2.984375 2.15625,-2.984375 1.265625,0 1.765625,1.3125 1.875,2.359375 0.03125,0.203125 0.015625,0.421875 0.046875,0.625 z m 0,0"
             id="path3" />
        </g>
      </g>
      <g
         fill="#000000"
         fill-opacity="1"
         id="g18"
         transform="matrix(0.352778,0,0,0.352778,-0.929084,-0.626886)">
        <g
           id="g4"
           transform="translate(23.555288,9.4020004)">
          <path
             d="M 0.65625,-7.421875 V -7.1875 H 0.9375 c 0.421875,0 0.875,0.0625 0.875,0.71875 v 5.484375 c 0,0.640625 -0.453125,0.6875 -1.15625,0.6875 v 0.28125 H 5.125 C 6.171875,-0.09375 7.546875,-0.75 7.546875,-2.09375 c 0,-1.265625 -1.84375,-1.953125 -2.5,-1.984375 C 5.203125,-4.15625 5.390625,-4.1875 5.5625,-4.234375 6.25,-4.453125 7.1875,-4.875 7.1875,-5.71875 7.1875,-6.359375 6.578125,-6.875 6.03125,-7.125 5.40625,-7.40625 4.75,-7.421875 4.078125,-7.421875 Z m 2.0625,3.46875 H 4.5 c 1.09375,0 1.953125,0.734375 1.953125,1.828125 0,1.140625 -1.0625,1.828125 -2.078125,1.828125 H 3.234375 c -0.375,0 -0.515625,-0.15625 -0.515625,-0.75 z m 0,-0.28125 V -6.46875 c 0,-0.359375 0.046875,-0.71875 0.53125,-0.71875 h 0.84375 c 0.46875,0 0.921875,0.03125 1.328125,0.28125 0.390625,0.265625 0.6875,0.71875 0.6875,1.203125 0,1.078125 -1.359375,1.46875 -2.0625,1.46875 z m 0,0"
             id="path4" />
        </g>
        <g
           id="g5"
           transform="translate(31.643084,9.4020004)">
          <path
             d="M 0.640625,-7.421875 V -7.1875 H 0.90625 c 0.4375,0 0.890625,0.0625 0.890625,0.71875 v 5.484375 c 0,0.640625 -0.453125,0.6875 -1.15625,0.6875 v 0.28125 h 4.28125 C 5.984375,-0.09375 7.40625,-0.6875 7.546875,-2 v -0.15625 c 0,-0.75 -0.578125,-1.359375 -1.203125,-1.703125 -0.671875,-0.359375 -1.40625,-0.375 -2.140625,-0.375 h -1.5 V -6.46875 C 2.703125,-7.0625 3,-7.1875 3.859375,-7.1875 v -0.234375 z m 2.0625,3.46875 H 4.3125 c 1.015625,0 2.109375,0.671875 2.109375,1.78125 0,1.109375 -1,1.84375 -2.046875,1.84375 H 3.078125 c -0.375,0 -0.375,-0.375 -0.375,-0.71875 z m 5.09375,-3.46875 V -7.1875 h 0.25 c 0.421875,0 0.90625,0.0625 0.90625,0.65625 v 5.578125 c 0,0.640625 -0.515625,0.65625 -1.15625,0.65625 v 0.28125 h 3.234375 v -0.28125 H 10.6875 c -0.453125,0 -0.84375,-0.078125 -0.84375,-1.03125 0,-0.234375 0.015625,-0.484375 0.015625,-0.71875 V -6.34375 c 0,-0.625 0.15625,-0.84375 1.171875,-0.84375 v -0.234375 z m 0,0"
             id="path5" />
        </g>
        <g
           id="g6"
           transform="translate(43.327175,9.4020004)">
          <path
             d="M 0.640625,-7.421875 V -7.1875 H 0.90625 c 0.4375,0 0.890625,0.0625 0.890625,0.71875 v 5.484375 c 0,0.640625 -0.453125,0.6875 -1.15625,0.6875 v 0.28125 h 3.21875 v -0.28125 H 3.65625 c -0.484375,0 -0.953125,-0.03125 -0.953125,-0.671875 v -5.546875 c 0,-0.421875 0.109375,-0.6875 0.578125,-0.6875 0.125,0 0.234375,0.015625 0.3125,0.015625 0.5,0 1,-0.015625 1.484375,-0.015625 0.296875,0 0.59375,0.046875 0.875,0.046875 0.25,0.0625 0.28125,0.265625 0.3125,0.5 v 5.625 c 0,0.53125 -0.15625,0.734375 -1.15625,0.734375 v 0.28125 h 3.21875 v -0.28125 H 8.125 c -0.484375,0 -0.9375,-0.03125 -0.9375,-0.6875 V -6.46875 c 0,-0.59375 0.34375,-0.71875 1.140625,-0.71875 v -0.234375 z m 0,0"
             id="path6" />
        </g>
        <g
           id="g7"
           transform="translate(52.313614,9.4020004)">
          <path
             d="M 0.28125,-7.421875 V -7.1875 h 0.171875 c 0.9375,0 1.09375,0.84375 1.359375,1.546875 0.6875,1.71875 1.40625,3.4375 2.09375,5.15625 0.03125,0.125 0.15625,0.296875 0.15625,0.453125 0,0.296875 -0.28125,0.765625 -0.40625,1.078125 C 3.328125,1.921875 2.84375,3.1875 1.75,3.1875 1.40625,3.1875 1.125,3.046875 0.859375,2.828125 1.1875,2.796875 1.453125,2.625 1.453125,2.265625 c 0,-0.3125 -0.25,-0.578125 -0.578125,-0.578125 -0.328125,0 -0.5625,0.234375 -0.5625,0.578125 0,0.765625 0.765625,1.203125 1.4375,1.203125 1.234375,0 1.796875,-1.265625 2.1875,-2.265625 0.84375,-2.1875 1.78125,-4.359375 2.640625,-6.5 C 6.875,-6.046875 7.21875,-7.1875 8.25,-7.1875 V -7.421875 H 5.90625 V -7.1875 c 0.40625,0 0.671875,0.375 0.671875,0.734375 0,0.25 -0.09375,0.515625 -0.1875,0.75 C 5.96875,-4.6875 5.5625,-3.671875 5.171875,-2.65625 l -0.375,0.875 C 4.71875,-1.578125 4.625,-1.390625 4.578125,-1.1875 H 4.5625 C 4.4375,-1.671875 4.1875,-2.140625 4.015625,-2.59375 3.609375,-3.578125 3.203125,-4.578125 2.8125,-5.5625 L 2.546875,-6.203125 c -0.0625,-0.15625 -0.140625,-0.3125 -0.140625,-0.484375 0,-0.25 0.1875,-0.5 0.828125,-0.5 v -0.234375 z m 0,0"
             id="path23" />
        </g>
        <g
           id="g8"
           transform="translate(60.850731,9.4020004)">
          <path
             d="M 0.640625,-7.421875 V -7.1875 H 0.90625 c 0.4375,0 0.890625,0.0625 0.890625,0.71875 v 5.484375 c 0,0.640625 -0.453125,0.6875 -1.15625,0.6875 v 0.28125 h 3.1875 v -0.28125 H 3.5625 C 3.140625,-0.296875 2.671875,-0.34375 2.671875,-1 v -1.9375 c 0,-0.234375 0.25,-0.375 0.421875,-0.5 0.3125,-0.265625 0.609375,-0.515625 0.921875,-0.765625 0.171875,0.296875 0.390625,0.546875 0.59375,0.828125 0.484375,0.671875 1,1.34375 1.484375,2.03125 0.125,0.15625 0.296875,0.4375 0.296875,0.671875 0,0.171875 -0.140625,0.375 -0.515625,0.375 v 0.28125 h 2.828125 v -0.28125 c -0.828125,0 -1.171875,-0.53125 -1.578125,-1.0625 -0.78125,-1.0625 -1.578125,-2.171875 -2.390625,-3.25 -0.015625,-0.046875 -0.03125,-0.0625 -0.03125,-0.09375 v -0.03125 c 0,-0.09375 0.140625,-0.171875 0.203125,-0.21875 l 0.609375,-0.5 C 6.3125,-6.140625 7.328125,-7.125 8.328125,-7.1875 v -0.234375 h -2.4375 V -7.1875 C 6.0625,-7.125 6.1875,-7.03125 6.1875,-6.859375 c 0,0.3125 -0.375,0.6875 -0.484375,0.8125 C 4.75,-5.140625 3.65625,-4.375 2.671875,-3.5 v -2.8125 c 0,-0.578125 0.03125,-0.875 1.15625,-0.875 v -0.234375 z m 0,0"
             id="path24" />
        </g>
        <g
           id="use16"
           transform="translate(69.837173,9.4020004)">
          <path
             d="M 2.09375,-7.421875 V -7.1875 h 0.3125 c 0.453125,0 0.921875,0.0625 0.921875,0.65625 0,1.40625 -0.109375,2.84375 -0.40625,4.21875 C 2.765625,-1.53125 2.4375,-0.125 1.5625,-0.125 c -0.25,0 -0.546875,-0.09375 -0.734375,-0.28125 0.328125,0 0.625,-0.21875 0.625,-0.578125 0,-0.265625 -0.203125,-0.5625 -0.5625,-0.5625 -0.34375,0 -0.578125,0.25 -0.578125,0.59375 0,0.75 0.65625,1.140625 1.328125,1.140625 0.921875,0 1.34375,-1.3125 1.546875,-2.15625 0.359375,-1.453125 0.359375,-2.953125 0.453125,-4.390625 V -6.53125 c 0,-0.296875 0.0625,-0.609375 0.421875,-0.65625 h 1.671875 c 0.4375,0 0.53125,0.25 0.53125,0.609375 v 5.609375 c 0,0.65625 -0.515625,0.671875 -1.15625,0.671875 v 0.28125 h 3.21875 v -0.28125 H 8.125 c -0.484375,0 -0.9375,-0.03125 -0.9375,-0.6875 V -6.46875 c 0,-0.59375 0.34375,-0.71875 1.140625,-0.71875 v -0.234375 z m 0,0"
             id="path25" />
        </g>
        <g
           id="use17"
           transform="translate(78.823608,9.4020004)">
          <path
             d="m 3.8125,-7.625 c -2.078125,0.25 -3.25,2.078125 -3.25,3.921875 0,1.8125 1.21875,3.828125 3.53125,3.828125 C 6.140625,0.125 7.5,-1.828125 7.5,-3.71875 7.5,-5.5625 6.25,-7.625 4.015625,-7.625 Z m -2.125,4.25 c 0,-0.140625 -0.015625,-0.28125 -0.015625,-0.40625 0,-1.25 0.1875,-2.8125 1.5625,-3.40625 C 3.5,-7.28125 3.765625,-7.359375 4.03125,-7.359375 c 1.40625,0 2.1875,1.3125 2.328125,2.609375 0.015625,0.296875 0.03125,0.59375 0.03125,0.90625 0,0.953125 -0.078125,2.03125 -0.703125,2.8125 -0.421875,0.515625 -1.03125,0.84375 -1.671875,0.84375 -1.375,0 -2.125,-1.328125 -2.265625,-2.515625 C 1.71875,-2.921875 1.71875,-3.15625 1.6875,-3.375 Z m 0,0"
             id="path26" />
        </g>
        <g
           id="use18"
           transform="translate(86.911407,9.4020004)">
          <path
             d="m 1.6875,-4.0625 h 4.828125 c 0.140625,0 0.21875,-0.03125 0.21875,-0.203125 0,-1.6875 -0.890625,-3.359375 -2.84375,-3.359375 -2.03125,0 -3.328125,1.9375 -3.328125,3.8125 0,1.8125 1.234375,3.828125 3.296875,3.9375 H 4 c 1.1875,0 2.34375,-0.78125 2.6875,-2 0.015625,-0.046875 0.03125,-0.109375 0.03125,-0.171875 0,-0.09375 -0.0625,-0.140625 -0.125,-0.140625 -0.21875,0 -0.296875,0.46875 -0.390625,0.671875 C 5.8125,-0.78125 5.046875,-0.1875 4.1875,-0.1875 3.6875,-0.1875 3.140625,-0.375 2.75,-0.71875 1.78125,-1.546875 1.6875,-2.875 1.6875,-4.0625 Z m 0.015625,-0.28125 c 0.03125,-1.34375 0.703125,-2.984375 2.15625,-2.984375 1.265625,0 1.765625,1.3125 1.875,2.359375 0.03125,0.203125 0.015625,0.421875 0.046875,0.625 z m 0,0"
             id="path27" />
        </g>
      </g>
    </g>
    <path
       style="fill:none;stroke:#000000;stroke-width:0.531;stroke-dasharray:none"
       d="m 79.566348,117.81829 c 32.107082,-0.0395 32.107082,-0.0395 32.107082,-0.0395"
       id="path9" />
    <ellipse
       style="fill:#000000;fill-opacity:1;stroke:#000000;stroke-width:0.531;stroke-dasharray:none"
       id="path10"
       cx="79.566025"
       cy="117.79854"
       rx="0.54524928"
       ry="0.54057455" />
    <ellipse
       style="fill:#000000;fill-opacity:1;stroke:#000000;stroke-width:0.531;stroke-dasharray:none"
       id="path10-9"
       cx="111.67376"
       cy="117.79854"
       rx="0.54524928"
       ry="0.54057455" />
  </g>
</svg>
